<svg xmlns="http://www.w3.org/2000/svg" direction="ltr" width="177.4689843511993" height="168.8499999985349" viewBox="779.2193845011165 100.20392362207224 177.4689843511993 168.8499999985349" stroke-linecap="round" stroke-linejoin="round" data-color-mode="light" class="tl-container tl-theme__force-sRGB tl-theme__light" style="background-color: transparent;"><defs/><g transform="matrix(1, 0, 0, 1, 870.1094, 139.3839)" opacity="0.5"><g transform="scale(1)"><path d="M0,2.1031 T-0.9827,2.0811 -3.6237,2.0554 -6.7832,2.0608 -9.7411,2.0794 -12.6394,2.097 -15.519,2.1113 -18.3954,2.1223 -21.2696,2.1306 -24.142,2.137 -27.014,2.1418 -29.8869,2.1454 -32.598,2.0891 -35.2685,2.623 -37.3202,4.3485 -39.3858,6.297 -41.4969,7.7924 -42.8513,9.7389 -44.212,12.4158 -45.6801,14.6827 -47.1668,16.295 -47.9284,18.1067 -48.5732,20.0151 -49.3088,22.1272 -50.0258,24.2548 -50.6722,26.239 -51.3838,29.0551 -52.1179,31.9516 -52.6798,34.223 -53.3628,36.359 -53.6582,38.7684 -54.2064,41.2221 -54.8591,43.4425 -55.197,46.0348 -55.8639,48.4044 -56.4744,50.5197 -56.6024,53.0681 -56.6671,55.7993 -56.6935,58.6308 -56.7064,61.4918 -56.714,64.3615 -56.719,67.2326 -56.7228,70.1064 -56.7255,72.9799 -56.5023,75.4104 -55.4218,78.0698 -53.8867,81.1087 -51.7728,83.5392 -49.1831,85.5505 -46.5824,87.274 -43.6904,88.7618 -41.025,89.5865 -38.9492,90.28 -36.9703,90.9227 -34.0742,91.4758 -31.2089,92.172 -28.643,92.5128 -26.2727,93.1919 -24.1635,93.8089 -21.6236,93.9387 -18.8927,94.0069 -16.061,94.0359 -13.1987,94.0507 -9.8845,94.4872 -6.8709,95.1089 -4.4009,95.3724 -1.658,95.4688 1.1763,95.4995 4.037,95.5089 6.9055,95.5117 9.7773,95.5127 12.6501,95.5132 15.5222,95.5133 18.3963,95.5135 21.2698,95.5136 24.1421,95.5136 27.014,95.5135 29.8869,95.5135 32.76,95.5136 35.6322,95.5136 38.264,95.1315 40.2244,94.0444 42.0469,92.5434 43.9967,90.6603 44.9499,88.5031 45.5061,86.3849 46.2616,84.1637 47.1313,82.1393 48.4951,79.7418 49.3623,76.9591 50.0624,74.8654 50.7045,72.8835 51.4085,70.0646 52.1262,67.2009 52.2473,64.7079 52.3225,61.9812 52.3571,59.1519 52.4357,56.4566 51.8501,53.6669 50.6459,50.9117 49.4786,48.2441 48.1284,46.0206 46.6134,43.7694 45.6456,40.8832 44.3244,38.1268 42.4207,36.0196 40.786,34.2066 39.4818,32.2788 38.2401,30.4729 36.6265,28.0519 35.1641,25.2928 33.8469,23.2587 32.4799,21.7469 31.0621,20.3024 29.6209,18.871 28.176,17.436 26.1782,16.0578 23.4885,14.6883 21.2203,13.2166 19.0449,11.7784 16.8826,10.3437 15.2876,8.8593 13.1934,7.4229 11.0989,6.1222 9.6849,4.7521 7.6463,3.2295 5.4201,1.7234 3.8158,0.2332 2.2419,-0.9438 0.4597,-1.6429 -1.3325,-2.5451 -3.2752,-3.2682 -5.8633,-3.4624 -8.2414,-4.1177 -10.4962,-4.8054 -11.8469,-4.9627 A2.2459,2.2459 0 0 1 -11.1331,-9.3973 T-10.3936,-9.2877 -8.1037,-8.4997 -5.2505,-7.837 -2.3469,-7.5932 0.8088,-6.5831 3.7244,-5.0752 5.8723,-3.5407 7.3624,-2.0903 9.4704,-0.6908 11.7476,0.8314 13.4796,2.1057 15.4476,3.4301 17.3552,5.0567 18.8528,6.5044 20.9164,7.8601 23.0679,9.2926 25.1904,10.6816 28.0064,12.1292 30.2865,13.7353 31.8011,15.2644 33.2382,16.724 34.7006,18.2255 36.2232,19.8548 37.8982,21.9163 39.3026,24.0645 40.589,26.4556 42.1315,28.6013 43.7252,30.4411 45.0053,32.4112 46.1954,34.0235 47.698,35.7258 49.0574,37.5055 49.7473,39.5633 50.5373,42.1213 52.0107,44.419 53.4092,46.2069 54.2833,48.1962 55.0975,51.0263 56.1547,53.6234 56.7198,56.1341 56.788,59.1714 56.787,62.0484 56.7418,64.9481 56.4889,67.9657 55.7692,70.84 55.0317,73.7269 54.2231,76.0471 53.4643,78.2192 52.564,81.0824 51.1637,84.0559 49.953,86.8281 49.1035,89.6725 48.0123,92.1393 46.3685,94.3655 44.0776,96.4501 41.6451,97.9438 39.7289,99.2142 37.2301,99.7683 34.1964,99.8264 31.3224,99.8265 28.4509,99.8264 25.5798,99.8263 22.7063,99.8264 19.8321,99.8265 16.9598,99.8265 14.0863,99.8266 11.2122,99.8267 8.3401,99.8264 5.4672,99.8249 2.5874,99.8202 -0.3081,99.8035 -3.2519,99.744 -6.3605,99.521 -8.8805,99.1049 -10.7746,98.6436 -13.2044,98.4248 -16.0804,98.4291 -18.9593,98.4223 -21.8604,98.3697 -24.8765,98.11 -27.7999,97.3799 -30.7919,96.6825 -33.3312,96.2436 -35.2459,95.7356 -37.8175,95.2538 -40.1378,94.4446 -42.3111,93.6818 -45.1789,92.7532 -48.1384,91.1859 -50.5671,89.5508 -52.3635,88.2882 -54.3224,86.9054 -56.2091,85.0333 -57.7831,82.5649 -59.3717,79.604 -60.6256,76.2939 -61.0544,72.9798 -61.0571,70.1063 -61.0606,67.2321 -61.0647,64.3598 -61.0692,61.4862 -61.0716,58.6116 -61.0625,55.7333 -61.0071,52.8348 -60.7457,49.8236 -60.0135,46.894 -59.3104,43.8924 -58.8684,41.3516 -58.3536,39.3877 -57.9037,36.7075 -57.2061,33.8555 -56.4986,31.1065 -55.796,28.266 -55.0692,25.381 -54.2726,23.0582 -53.5473,20.8966 -52.8086,18.7336 -51.9791,16.5163 -50.9543,14.2521 -49.5093,12.7573 -48.1959,10.7239 -46.7336,7.9056 -45.0926,5.6198 -43.4513,4.0747 -41.9094,2.6411 -40.4211,1.2508 -37.9917,-0.2404 -35.4212,-1.5328 -32.9219,-2.0891 -29.8869,-2.1454 -27.014,-2.1418 -24.142,-2.137 -21.2696,-2.1306 -18.3954,-2.1223 -15.519,-2.1113 -12.6394,-2.097 -9.7411,-2.0794 -6.7832,-2.0608 -3.6237,-2.0554 -0.9827,-2.0811 0,-2.1031 A2.1031,2.1031 0 0 1 0,2.1031 Z" stroke-linecap="round" fill="#9fa8b2"/></g></g><g transform="matrix(1, 0, 0, 1, 884.4733, 182.4757)" opacity="0.5"><g transform="scale(1)"><path d="M1.921,0.9638 T1.5939,1.6133 1.0957,3.3184 0.8535,5.6898 0.7596,8.4056 1.8468,10.1955 3.1684,9.559 2.9718,7.3938 1.0995,5.68 -1.2329,4.5297 -3.234,3.8957 -5.6837,3.7829 -8.4022,3.7045 -11.2303,3.6679 -14.0917,3.6473 -16.9614,3.6339 -19.2534,3.614 -20.1104,3.5995 A2.1595,2.1595 0 0 1 -20.1096,-0.7195 T-19.2526,-0.7337 -16.9597,-0.7525 -14.0857,-0.7627 -11.2101,-0.7724 -8.3323,-0.7722 -5.434,-0.726 -2.4076,-0.4611 -0.0922,0.3273 2.0478,1.0237 4.329,1.5473 6.0107,3.5938 7.2838,6.1605 7.7987,8.0076 7.5856,10.5059 6.8466,12.9522 5.3814,14.3749 3.4714,14.9448 0.9644,14.7114 -1.4821,13.9547 -2.9666,11.6077 -3.5507,8.2932 -3.433,5.3074 -2.9605,2.0688 -2.2506,-0.3046 -1.921,-0.9638 A2.1492,2.1492 0 0 1 1.921,0.9638 Z" stroke-linecap="round" fill="#9fa8b2"/></g></g><g transform="matrix(1, 0, 0, 1, 855.7454, 202.5852)" opacity="0.5"><g transform="scale(1)"><path d="M2.0829,0 T2.0625,0.9827 2.0409,3.6237 2.0502,6.7832 2.0535,9.1671 2.0462,10.05 A2.0462,2.0462 0 0 1 -2.0462,10.05 T-2.0535,9.1671 -2.0502,6.7832 -2.0409,3.6237 -2.0625,0.9827 -2.0829,0 A2.0829,2.0829 0 0 1 2.0829,0 Z" stroke-linecap="round" fill="#9fa8b2"/></g></g><g transform="matrix(1, 0, 0, 1, 864.3638, 221.2584)" opacity="0.5"><g transform="scale(1)"><path d="M-0.9611,-1.9155 T-0.3021,-2.2454 2.0702,-2.9561 5.3078,-3.4295 7.8076,-3.7312 9.1193,-5.2012 9.4554,-6.4622 A2.1556,2.1556 0 0 1 13.5246,-5.0378 T13.2755,-4.3136 12.6568,-2.7018 11.532,-1.0088 8.8912,0.2881 5.6895,0.85 3.3169,1.0913 1.6108,1.5888 0.9611,1.9155 A2.1431,2.1431 0 0 1 -0.9611,-1.9155 Z" stroke-linecap="round" fill="#9fa8b2"/></g></g><g transform="matrix(1, 0, 0, 1, 838.4863, 190.211)" opacity="0.5"><g transform="scale(1)"><path d="M2.3235,0 T2.3131,0.6816 1.6068,2.7466 -0.1292,4.5912 -2.2227,5.1532 -4.6453,5.2153 -7.341,4.3352 -9.1432,2.4615 -9.78,0.2537 -9.9666,-2.1279 -9.9997,-4.4918 -10.0125,-6.8007 -10.0216,-9.1037 -9.9569,-11.3143 -9.1018,-13.6502 -7.2374,-15.7289 -4.9855,-16.7222 -3.8117,-16.9139 A2.5384,2.5384 0 0 1 -3.1083,-11.8861 T-4.0305,-11.3591 -4.9565,-9.6812 -4.9649,-7.3778 -4.9747,-5.0767 -4.9791,-2.8085 -4.75,-0.6158 -3.4121,0.8604 -2.3131,0.6317 -2.3235,0 A2.3235,2.3235 0 0 1 2.3235,0 Z" stroke-linecap="round" fill="#9fa8b2"/></g></g><g transform="matrix(1, 0, 0, 1, 838.4863, 188.483)" opacity="0.5"><g transform="scale(1)"><path d="M-2.0833,1.0417 T-2.3444,0.5151 -2.8968,-0.9899 -3.976,-2.7772 -5.7576,-4.5476 -7.8677,-6.0515 -10.0329,-6.8026 -11.4371,-6.8695 -11.7926,-6.7277 A2.5071,2.5071 0 0 1 -11.2474,-11.7123 T-9.7983,-11.3912 -7.2291,-10.6298 -5.1028,-9.783 -3.1783,-8.6685 -1.6708,-7.12 -0.3049,-5.4014 1.0145,-3.3048 1.82,-1.5639 2.0833,-1.0417 A2.3292,2.3292 0 0 1 -2.0833,1.0417 Z" stroke-linecap="round" fill="#9fa8b2"/></g></g></svg>