<svg xmlns="http://www.w3.org/2000/svg" direction="ltr" width="1019.4344662801198" height="438.55079296021904" viewBox="378.46352988189716 -47.39870807011817 1019.4344662801198 438.55079296021904" stroke-linecap="round" stroke-linejoin="round" data-color-mode="light" class="tl-container tl-theme__force-sRGB tl-theme__light" style="background-color: rgb(249, 250, 251);"><defs/><g transform="matrix(1, 0, 0, 1, 410.4635, 155.1843)" opacity="1"><path stroke-width="3.5" d="M 6.9585 -0.9352 L 102.6801 -0.4506 Q 109.6801 -0.4506 109.6801 6.5494 L 110.0039 37.6696 Q 110.0039 44.6696 103.0039 44.6696 L 7.1179 43.8919 Q 0.1179 43.8919 0.1179 36.8919 L -0.0415 6.0648 Q -0.0415 -0.9352 6.9585 -0.9352 M 6.3132 -0.8599 L 102.5104 -0.1834 Q 109.5104 -0.1834 109.5104 6.8166 L 111.7217 37.2655 Q 111.7217 44.2655 104.7217 44.2655 L 6.5571 44.9466 Q -0.4429 44.9466 -0.4429 37.9466 L -0.6868 6.1401 Q -0.6868 -0.8599 6.3132 -0.8599" fill="none" stroke="#1d1d1d"/></g><g transform="matrix(1, 0, 0, 1, 575.6486, 153.7479)" opacity="1"><path stroke-width="3.5" d="M 6.2443 -0.1004 L 142.0962 -1.1547 Q 149.0962 -1.1547 149.0962 5.8453 L 147.0078 40.7157 Q 147.0078 47.7157 140.0078 47.7157 L 6.2935 48.1683 Q -0.7065 48.1683 -0.7065 41.1683 L -0.7557 6.8996 Q -0.7557 -0.1004 6.2443 -0.1004 M 6.7335 -0.4717 L 141.9608 -0.8363 Q 148.9608 -0.8363 148.9608 6.1637 L 148.7894 42.7878 Q 148.7894 49.7878 141.7894 49.7878 L 8.0389 49.141 Q 1.0389 49.141 1.0389 42.141 L -0.2665 6.5283 Q -0.2665 -0.4717 6.7335 -0.4717" fill="none" stroke="#1d1d1d"/></g><g transform="matrix(1, 0, 0, 1, 788.2349, 146.5659)" opacity="1"><path stroke-width="3.5" d="M 5.9077 -0.3657 L 136.3908 0.96 Q 143.3908 0.96 143.3908 7.96 L 143.3056 47.6669 Q 143.3056 54.6669 136.3056 54.6669 L 7.4437 54.1226 Q 0.4437 54.1226 0.4437 47.1226 L -1.0923 6.6343 Q -1.0923 -0.3657 5.9077 -0.3657 M 6.4891 -0.1537 L 136.5515 0.6949 Q 143.5515 0.6949 143.5515 7.6949 L 143.9302 47.3425 Q 143.9302 54.3425 136.9302 54.3425 L 6.883 55.4091 Q -0.117 55.4091 -0.117 48.4091 L -0.5109 6.8463 Q -0.5109 -0.1537 6.4891 -0.1537" fill="none" stroke="#1d1d1d"/></g><g transform="matrix(0.9998, -0.0175, 0.0175, 0.9998, 983.0096, -12.6631)" opacity="1"><path stroke-width="3.5" d="M 6.3547 0.2725 L 150.5162 0.2218 Q 157.5162 0.2218 157.5162 7.2218 L 157.246 50.176 Q 157.246 57.176 150.246 57.176 L 7.8491 56.6501 Q 0.8491 56.6501 0.8491 49.6501 L -0.6453 7.2725 Q -0.6453 0.2725 6.3547 0.2725 M 6.9171 0.3385 L 150.3898 0.5581 Q 157.3898 0.5581 157.3898 7.5581 L 156.6214 49.7696 Q 156.6214 56.7696 149.6214 56.7696 L 6.1125 57.9646 Q -0.8875 57.9646 -0.8875 50.9646 L -0.0829 7.3385 Q -0.0829 0.3385 6.9171 0.3385" fill="none" stroke="#1d1d1d"/></g><g transform="matrix(0.9998, -0.0175, 0.0175, 0.9998, 1208.1817, 143.9039)" opacity="1"><path stroke-width="3.5" d="M 5.8863 -0.5791 L 148.86 -0.2785 Q 155.86 -0.2785 155.86 6.7215 L 156.4756 48.8493 Q 156.4756 55.8493 149.4756 55.8493 L 8.0471 57.1445 Q 1.0471 57.1445 1.0471 50.1445 L -1.1137 6.4209 Q -1.1137 -0.5791 5.8863 -0.5791 M 6.508 -0.0664 L 148.6925 -0.5458 Q 155.6925 -0.5458 155.6925 6.4542 L 157.1002 50.7876 Q 157.1002 57.7876 150.1002 57.7876 L 6.2836 55.8659 Q -0.7164 55.8659 -0.7164 48.8659 L -0.492 6.9336 Q -0.492 -0.0664 6.508 -0.0664" fill="none" stroke="#1d1d1d"/></g><g transform="matrix(1, 0, 0, 1, 1015.1852, 303.1327)" opacity="1"><path stroke-width="3.5" d="M 7.2153 -1.1607 L 151.7971 -0.9176 Q 158.7971 -0.9176 158.7971 6.0824 L 159.1294 48.491 Q 159.1294 55.491 152.1294 55.491 L 7.4029 56.3936 Q 0.4029 56.3936 0.4029 49.3936 L 0.2153 5.8393 Q 0.2153 -1.1607 7.2153 -1.1607 M 7.8048 -0.6526 L 151.6407 -0.5994 Q 158.6407 -0.5994 158.6407 6.4006 L 157.411 49.4084 Q 157.411 56.4084 150.411 56.4084 L 6.8515 55.425 Q -0.1485 55.425 -0.1485 48.425 L 0.8048 6.3474 Q 0.8048 -0.6526 7.8048 -0.6526" fill="none" stroke="#1d1d1d"/></g><g transform="matrix(1, 0, 0, 1, 904.5827, 133.6384)" opacity="1"><g transform="scale(1)"><path d="M-3.3349,0 T-3.307,-1.311 -3.2872,-4.5549 -3.3179,-8.0701 -3.3619,-11.1323 -3.3099,-14.3168 -2.6081,-17.8258 -1.2715,-21.6613 -0.019,-25.0717 1.3985,-28.379 2.8102,-31.9321 4.0113,-35.1461 5.3749,-38.194 7.0147,-41.4257 8.6485,-44.4904 10.0574,-47.1788 12.4112,-50.5515 15.0179,-53.9797 17.0309,-56.6843 19.2454,-59.544 21.4196,-62.4243 23.1511,-65.1106 25.5775,-68.3201 28.6655,-70.834 31.423,-72.9067 34.0876,-76.2001 36.9418,-79.7753 39.9449,-82.8648 42.8217,-85.7598 45.7742,-89.4178 48.875,-92.5162 52.0033,-93.5989 55.5118,-95.0467 58.6043,-97.0714 59.735,-97.8485 A3.6598,3.6598 0 0 1 63.785,-91.7515 T62.9788,-91.1918 59.9504,-89.4975 55.7514,-87.7317 52.1021,-86.0068 49.4222,-83.2608 46.978,-80.1713 44.1282,-77.3182 41.5387,-74.6684 39.3452,-71.7788 36.8355,-68.6533 33.2688,-65.8127 30.0216,-63.1985 27.9413,-60.2998 26.3135,-57.3239 24.0604,-54.3509 21.5023,-51.095 19.4386,-48.4079 17.8015,-46.049 16.4035,-43.2734 14.3404,-40.3612 12.5604,-37.0764 11.223,-33.657 9.7562,-30.0999 8.348,-26.6527 6.7982,-23.6134 5.8307,-20.5185 4.9784,-17.6633 3.8453,-14.4562 3.3619,-11.1323 3.3179,-8.0701 3.2872,-4.5549 3.307,-1.311 3.3349,0 A3.3349,3.3349 0 0 1 -3.3349,0 Z" stroke-linecap="round" fill="#1d1d1d"/></g></g><g transform="matrix(1, 0, 0, 1, 1155.9516, 15.8541)" opacity="1"><g transform="scale(1)"><path d="M1.0736,-3.2135 T2.0528,-2.8791 4.9391,-1.6272 7.9706,0.2021 10.6634,2.2027 13.5049,4.2758 16.9286,6.6748 21.2389,9.5165 25.0052,12.0414 27.8786,14.1812 30.7703,16.3998 33.6681,18.5705 37.1133,21.0293 41.372,23.5691 44.982,24.8931 48.203,25.851 51.9288,28.1941 55.2471,30.4533 57.9547,31.7807 60.8072,33.1997 64.4064,35.3289 67.9948,37.4828 71.0935,39.8005 74.2298,42.8206 77.1295,45.6969 80.1365,48.7073 82.3945,51.651 84.5583,54.5255 86.9025,58.2388 88.4422,61.9207 89.8158,64.7536 91.1158,67.4797 92.6104,70.4346 94.2577,73.48 95.7352,76.3814 97.1799,79.2553 99.1678,82.0386 100.8216,85.2482 101.5511,88.8086 103.4146,92.5913 105.2046,95.6315 105.478,96.5894 A3.6611,3.6611 0 0 1 98.482,98.7506 T97.8746,97.1541 96.3704,94.4813 94.8034,92.1695 93.9648,89.4274 93.2969,86.5734 92.0787,83.7881 90.6488,80.9188 89.2326,78.0699 86.9486,74.4522 84.6321,71.0343 83.2394,68.0531 81.6338,64.5054 80.4129,61.2995 78.5887,58.2426 75.7341,54.662 72.9938,51.2757 70.1298,48.4064 67.3369,45.6322 64.6081,43.6273 61.1686,41.6123 57.6732,39.5399 54.8155,38.093 51.8742,36.5686 48.3412,34.4576 44.9977,32.5981 41.5382,31.2993 37.6029,29.4885 34.4534,27.744 31.5162,25.5936 28.6159,23.4055 25.6396,21.14 22.3849,18.5779 19.6227,16.5283 17.1566,14.8029 14.0383,12.9478 11.0536,10.744 8.5712,8.9706 5.7681,6.7758 2.5857,4.5814 -0.0875,3.5357 -1.0736,3.2135 A3.3881,3.3881 0 0 1 1.0736,-3.2135 Z" stroke-linecap="round" fill="#1d1d1d"/></g></g><g transform="matrix(1, 0, 0, 1, 1276.6086, 206.8944)" opacity="1"><g transform="scale(1)"><path d="M3.1722,1.0599 T2.8404,2.0399 2.2852,5.0293 1.3325,9.1341 0.0591,12.5855 -1.1831,15.3395 -2.6583,18.2573 -4.7687,21.6788 -7.0989,24.9029 -8.8355,27.6684 -10.6564,30.7466 -13.1158,33.8007 -15.576,36.4762 -17.4253,39.1688 -18.6993,41.9955 -20.0435,45.4295 -21.4667,48.8154 -23.7869,52.0488 -26.875,55.9648 -29.3378,59.5762 -31.2375,62.8042 -33.7868,66.3706 -36.1889,69.5969 -38.2296,73.0368 -41.0965,77.3511 -43.6882,81.1232 -45.8108,83.9934 -47.5464,86.6808 -48.9993,89.5301 -51.1654,93.1569 -54.0701,96.9346 -56.2227,99.8067 -58.4831,102.7339 -61.4899,105.8332 -63.452,109.1009 -65.5881,112.6683 -68.88,115.4631 -71.7926,117.6798 -74.8968,119.9834 -78.9421,121.861 -82.0001,123.2288 -82.88,123.8432 A3.6919,3.6919 0 0 1 -86.62,117.4768 T-84.4035,116.5746 -80.3646,115.1422 -76.9119,113.0589 -73.3818,110.2363 -70.4073,107.8208 -69.0484,105.053 -67.2043,101.8644 -64.2816,98.914 -62.1228,96.0466 -59.4686,92.6301 -56.7008,89.1112 -55.1933,86.2413 -53.8004,83.4388 -51.8387,80.0739 -49.6198,77.1243 -47.8884,74.6581 -45.7775,71.7346 -43.0531,68.22 -40.8006,64.6247 -38.8421,61.2604 -37.0743,58.1183 -35.249,55.591 -33.501,53.1178 -31.2921,50.2029 -28.7994,46.9838 -27.1166,43.9491 -26.019,40.7435 -24.2918,37.4802 -21.889,34.2623 -19.5706,30.7235 -17.0083,27.5266 -14.8989,24.577 -12.9428,21.2516 -10.7571,18.2291 -9.0825,15.7087 -7.7284,12.9898 -5.8098,9.6544 -4.574,6.2928 -4.1852,2.8925 -3.497,-0.0745 -3.1722,-1.0599 A3.3446,3.3446 0 0 1 3.1722,1.0599 Z" stroke-linecap="round" fill="#1d1d1d"/></g></g><g transform="matrix(1, 0, 0, 1, 1013.7487, 323.2423)" opacity="1"><g transform="scale(1)"><path d="M0,3.3324 T-1.311,3.3047 -4.5549,3.2853 -8.0701,3.3164 -11.3777,3.2726 -14.7297,2.6921 -18.0389,1.4789 -21.0109,0.1031 -23.7868,-1.2171 -27.0447,-2.7768 -30.3123,-4.1453 -33.284,-5.5903 -36.3273,-7.121 -39.1666,-8.3077 -41.7379,-10.4403 -44.359,-12.5962 -47.0353,-13.9898 -49.7909,-15.4303 -53.5658,-16.8289 -57.225,-18.2605 -59.8992,-19.7465 -63.199,-21.8163 -66.459,-24.2115 -69.9513,-26.3956 -73.826,-28.3596 -77.1679,-29.9545 -80.0063,-31.4174 -83.2644,-33.7544 -87.4152,-36.8521 -91.5478,-38.9548 -95.3142,-40.7826 -98.4789,-43.6973 -101.4025,-47.0034 -104.4889,-50.162 -106.8945,-53.2671 -108.3281,-56.0838 -109.914,-58.405 -111.9441,-60.4598 -113.806,-62.9016 -116.1023,-65.9301 -118.3955,-69.0478 -120.5845,-72.6541 -122.2099,-76.3483 -123.1135,-79.3343 -124.6125,-82.3872 -126.1929,-86.2238 -127.0374,-89.9765 -127.593,-93.3875 -128.2787,-96.9406 -129.1582,-101.1569 -129.8873,-104.7773 -129.9775,-105.9064 A3.598,3.598 0 0 1 -122.8225,-106.6736 T-122.6713,-105.551 -121.982,-102.7336 -121.3873,-99.3404 -120.5649,-95.4313 -119.8914,-91.2528 -119.3128,-87.2265 -117.8824,-83.6382 -116.4369,-80.083 -114.3542,-75.922 -111.4897,-71.6271 -109.0067,-68.212 -106.619,-65.557 -104.0585,-62.4799 -102.179,-59.4024 -100.1692,-56.0319 -97.2808,-52.4736 -93.8648,-49.0675 -90.1818,-46.0934 -86.6389,-44.0252 -83.2435,-42.0613 -79.6072,-39.7665 -75.8252,-37.3987 -72.6195,-35.2994 -69.7517,-33.8838 -66.8028,-32.6546 -64.0639,-30.7454 -61.1618,-28.6547 -58.1045,-26.9458 -55.1677,-25.401 -52.2178,-23.9337 -48.6982,-22.6207 -45.1882,-21.2293 -42.2657,-19.6766 -39.2568,-17.7791 -36.1161,-15.4779 -33.1063,-13.5026 -29.8322,-11.5694 -26.3079,-9.5791 -22.6884,-8.094 -18.962,-6.4803 -15.3202,-4.9075 -11.5449,-3.809 -8.0701,-3.3164 -4.5549,-3.2853 -1.311,-3.3047 0,-3.3324 A3.3324,3.3324 0 0 1 0,3.3324 Z" stroke-linecap="round" fill="#1d1d1d"/></g></g><g transform="matrix(1, 0, 0, 1, 526.8114, 172.421)" opacity="1"><g transform="scale(1)"><path d="M0,-3.3147 T1.311,-3.2882 4.5549,-3.2719 8.0701,-3.3058 11.1323,-3.3522 14.0627,-3.394 16.9528,-3.4294 19.83,-3.4588 22.7057,-3.4831 25.5796,-3.5032 28.4508,-3.5198 31.3224,-3.5336 35.0544,-3.4902 37.35,-3.4406 A3.4406,3.4406 0 0 1 37.35,3.4406 T35.0544,3.4902 31.3224,3.5336 28.4508,3.5198 25.5796,3.5032 22.7057,3.4831 19.83,3.4588 16.9528,3.4294 14.0627,3.394 11.1323,3.3522 8.0701,3.3058 4.5549,3.2719 1.311,3.2882 0,3.3147 A3.3147,3.3147 0 0 1 0,-3.3147 Z" stroke-linecap="round" fill="#1d1d1d"/></g></g><g transform="matrix(1, 0, 0, 1, 727.9064, 173.8574)" opacity="1"><g transform="scale(1)"><path d="M0,-3.3147 T1.311,-3.2882 4.5549,-3.2719 8.0701,-3.3058 11.1323,-3.3522 14.0627,-3.394 16.9528,-3.4294 19.83,-3.4588 22.7057,-3.4831 25.5796,-3.5032 28.4508,-3.5198 31.3224,-3.5336 34.1964,-3.5449 37.6281,-4.1525 41.1781,-4.8603 44.1987,-4.9923 47.438,-5.0069 50.4572,-4.9617 51.7016,-4.9287 A3.4887,3.4887 0 0 1 51.7184,2.0487 T49.4385,2.1098 45.0962,2.1969 41.5485,2.1723 37.8486,2.836 34.1964,3.5449 31.3224,3.5336 28.4508,3.5198 25.5796,3.5032 22.7057,3.4831 19.83,3.4588 16.9528,3.4294 14.0627,3.394 11.1323,3.3522 8.0701,3.3058 4.5549,3.2719 1.311,3.2882 0,3.3147 A3.3147,3.3147 0 0 1 0,-3.3147 Z" stroke-linecap="round" fill="#1d1d1d"/></g></g><g transform="matrix(1, 0, 0, 1, 946.2382, 30.218)" opacity="1"><g transform="scale(1)"><path d="M0,-3.4018 T1.3749,-3.3552 4.0958,-2.8521 7.7116,-1.4726 11.5808,0.2236 14.8946,2.5558 18.2094,5.6778 20.2331,9.1071 20.0153,13.3438 18.5805,17.373 17.1205,21.1059 15.6891,24.7241 14.9944,28.3273 15.0645,30.3862 A3.5817,3.5817 0 0 1 7.9155,29.9338 T8.0262,27.5507 8.9875,23.5044 10.471,20.4806 11.2776,17.6098 12.0866,14.7757 13.4535,12.2029 12.7806,9.5264 10.1633,6.9303 7.5149,5.0773 4.2867,3.8508 1.2471,3.3552 0,3.4018 A3.4018,3.4018 0 0 1 0,-3.4018 Z" stroke-linecap="round" fill="#1d1d1d"/></g></g><g transform="matrix(1, 0, 0, 1, 1262.2447, 96.2921)" opacity="1"><g transform="scale(1)"><path d="M3.3609,0 T3.3311,1.311 3.307,4.5549 2.6921,8.7172 1.257,12.7305 -0.196,15.7715 -1.5597,18.9358 -2.9521,22.0958 -4.6414,24.3506 -7.5832,25.8616 -11.0407,26.4561 -14.0414,26.5624 -16.9471,26.5879 -19.8284,26.5931 -22.7052,26.5928 -25.5795,26.5913 -29.2414,25.8719 -32.5832,24.2556 -35.0414,22.7012 -37.9446,21.1057 -39.5054,20.1669 A3.6349,3.6349 0 0 1 -35.1946,14.3131 T-33.5161,15.7167 -30.3202,17.9627 -27.1911,19.0867 -24.1438,19.3668 -21.2755,19.3631 -18.4156,19.356 -14.9129,19.3256 -10.8729,19.2156 -8.7019,17.605 -7.6885,14.5967 -5.566,11.1188 -3.7815,7.8054 -3.307,4.5549 -3.3311,1.311 -3.3609,0 A3.3609,3.3609 0 0 1 3.3609,0 Z" stroke-linecap="round" fill="#1d1d1d"/></g></g><g transform="matrix(1, 0, 0, 1, 1191.8614, 307.4419)" opacity="1"><g transform="scale(1)"><path d="M3.2012,1.0695 T2.8676,2.049 2.2732,4.5183 1.4061,7.5752 0.7336,10.9565 0.5642,14.4285 -0.0503,17.6346 -0.6301,21.0031 1.3811,23.2849 4.8979,24.3216 8.2707,25.7717 12.3744,27.3624 16.0911,28.8445 19.2301,30.568 20.8199,31.525 A3.6463,3.6463 0 0 1 16.5201,37.415 T14.8717,36.0491 11.3151,34.0941 7.8031,32.7357 4.7083,31.8095 1.8919,31.0857 -1.4802,29.8407 -4.8852,28.2591 -6.9545,26.0203 -7.737,22.9362 -7.6995,19.6309 -6.9712,16.0648 -6.3114,12.5811 -6.1378,9.523 -5.2167,6.2472 -4.138,2.7291 -3.5242,-0.0836 -3.2012,-1.0695 A3.3752,3.3752 0 0 1 3.2012,1.0695 Z" stroke-linecap="round" fill="#1d1d1d"/></g></g><g transform="matrix(1, 0, 0, 1, 887.3461, 208.3308)" opacity="1"><g transform="scale(1)"><path d="M1.8707,2.8093 T0.898,3.4305 -1.2455,5.1255 -4.0063,7.7917 -7.2284,10.4159 -10.013,12.6238 -12.2435,15.2382 -15.0211,18.0467 -17.6455,21.4597 -18.5703,23.5026 A3.5625,3.5625 0 0 1 -24.5297,19.5974 T-24.0233,18.8038 -22.8846,16.735 -20.5651,13.7968 -17.6363,10.8885 -14.9545,8.2699 -11.4145,5.5085 -7.7219,2.3824 -4.9926,-0.395 -2.8634,-2.1218 -1.8707,-2.8093 A3.3752,3.3752 0 0 1 1.8707,2.8093 Z" stroke-linecap="round" fill="#1d1d1d"/></g></g><g transform="matrix(1, 0, 0, 1, 890.2188, 211.2036)" opacity="1"><g transform="scale(1)"><path d="M0,-3.3848 T1.3746,-3.3394 4.0928,-2.8389 7.7056,-1.463 11.5747,0.2299 14.6525,1.7183 18.2489,3.1184 21.9276,4.8989 24.8509,7.0155 27.6711,8.7917 31.2724,10.6277 35.0729,13.1092 36.7292,14.511 A3.5429,3.5429 0 0 1 32.2108,19.969 T30.4844,18.5679 26.6862,15.7937 22.9534,13.5169 19.9278,11.8985 16.8468,10.0769 13.467,8.095 10.3784,6.4869 7.5175,5.0684 4.2883,3.8385 1.2474,3.3394 0,3.3848 A3.3848,3.3848 0 0 1 0,-3.3848 Z" stroke-linecap="round" fill="#1d1d1d"/></g></g></svg>